<svg xmlns="http://www.w3.org/2000/svg" width="525" height="500">
  <path fill="#F64060" d="M452.8 321.5a93.7 93.7 0 01-94.3 93.9c-2 0-2.7.7-3.3 2.5a62.7 62.7 0 01-53.5 44.6 61.2 61.2 0 01-48-13.3c-1.9-1.6-3.1-1.6-5.1-.2a85.7 85.7 0 01-134-55.6c-.5-2.6-1-5.3-1-8 0-2.3-1-3.2-3-3.6a75.2 75.2 0 01-32.4-14.7 77.3 77.3 0 01-30.6-54 78 78 0 0123-65.8c1.4-1.5 1.5-2.5.5-4.3a73.8 73.8 0 0149-108.8c3.9-.8 6-2.3 7.6-6 16.5-35.4 44-57 82.4-64.1 27-5 52.3.3 75.9 14.2 2 1.2 3.6 1.3 5.8.6a96 96 0 0198.7 23.8 93.8 93.8 0 0129 73.8c-.2 1.9.3 2.7 2.1 3.3a51.9 51.9 0 0133.6 35.2c6.4 21.4 1 40.2-15 55.8-1.3 1.3-1 2.2-.3 3.5a92.2 92.2 0 0112.9 47.2zm-167-7.4a44.6 44.6 0 0030 42.3c9 3 18 4.3 27.3 4.7 6.6.3 13.2-.1 19.3-3.2 4.8-2.4 7-6.3 6.8-11.6-.2-5.3-2.6-9.3-7.7-11.4-1.7-.7-3.5-1.3-5.4-1.6l-16.8-3c-9.2-1.8-13-6.7-13.1-16-.2-8.2 2-16 4.6-23.6 4.6-14 10.9-27.5 16.9-41 5.7-13 11.8-26 15.9-39.6a41.6 41.6 0 001.2-23c-3-11.8-10.2-19.7-22.4-22-11.2-2-22.3-2.3-32.4 4.4-3.4 2.2-6.6 1.7-9.6-1l-6.5-6c-10.3-9.5-24-10-35-1.3-4.5 3.6-8.3 8-13.2 11-4.3 2.7-8.7 3.5-13.5.9a242 242 0 00-14-6.7c-4.8-2.2-9.5-4.9-14.9-5.3-17-1.5-34.9 8.7-42.4 24-3.4 6.9-6 14-8.7 21.1-11.9 33-21.6 66.6-31.7 100.2-4.5 15 .8 29.8 13.5 37.9 10 6.3 20.8 7.9 32 4.5 9.2-2.8 14.2-10 17.7-18.3 11.5-27.4 22-55.1 33-82.7 3-7.6 6-15.2 9.2-22.7 3.3-7.6 12.6-10.1 18.2-5.1 3.4 3 4.3 7.1 4 11.5-.4 4.7-2.2 9-4 13.2-7.1 18.2-14.4 36.3-21.6 54.5-1.5 3.7-3 7.3-3.7 11.2-1.1 6.8 1.5 12.8 7 15.2a22.9 22.9 0 0017.4.7c6.9-2.5 11-7.8 14-14l32.3-63.5 15.1-29.2c1.9-3.6 4.1-7 7.6-9.3 3.2-2 6.7-2.1 10-.3 3.1 1.8 3.3 5 3.2 8.3 0 1.7-.6 3.4-1.2 5-1.4 3.3-2.7 6.7-4.3 10l-27 56.5c-3.7 8-7.5 16-7 24.3zM411.4 453a23.2 23.2 0 00-46.5.1 23.5 23.5 0 0023.2 23.2 23.4 23.4 0 0023.3-23.3zM22 261.5a22.5 22.5 0 0022.4-22.2c-.1-12-10.1-22-22.2-22a22 22 0 00-22.1 22 22 22 0 0022 22.2zM294 13.8a22 22 0 00-22.2 21.8c0 12 9.8 22 22 22 12.1 0 21.8-9.7 21.8-21.8 0-12.2-9.5-22-21.6-22zm179.9 137a19 19 0 00-18.7-18.6 19 19 0 00-19 18.8c.1 10.3 8.4 18.5 18.7 18.5 10.6 0 19-8.3 19-18.7zM88.6 97.2c0 9.4 7.3 16.8 16.7 16.8 9.5 0 16.8-7.4 16.8-17 0-9.2-7.4-16.5-16.7-16.4-9.6 0-16.8 7.1-16.8 16.6zM264 485.9c0-7.8-6.4-14.3-14.3-14.3a14.2 14.2 0 10-.1 28.5c8 0 14.3-6.2 14.4-14.2zm224-223c-7.6 0-14.3 6.5-14.2 14.2a14 14 0 0014 13.7c8 0 14-5.9 14-13.8A14 14 0 00488 263zM153-.1c-6.7 0-12 5-12 11.8 0 6.6 5.3 11.8 12 11.8 6.6 0 11.7-5.3 11.7-11.9C164.7 5 159.7 0 153 0zm361.6 199.6c-5.5 0-10.5 4.9-10.5 10.4-.1 5.8 4.7 10.5 10.5 10.6 5.8 0 10.4-4.5 10.4-10.4 0-5.8-4.6-10.5-10.4-10.6zm-415 207c0-5.6-4.8-10.3-10.5-10.4-5.7 0-10.4 4.8-10.4 10.6S83.4 417 89.2 417c5.7 0 10.3-4.7 10.3-10.4z"/>
</svg>
